[Header]
FileType HTR
DataType HTRS
FileVersion 1
NumSegments 64
NumFrames 3
DataFrameRate 24
EulerRotationOrder ZYX
CalibrationUnits mm
RotationUnits Degrees
GlobalAxisofGravity Y
BoneLengthAxis Y
ScaleFactor 1.0
[SegmentNames&Hierarchy]
Hips	GLOBAL
Spine	Hips
Spine1	Spine
Spine2	Spine1
Neck	Spine2
Head	Neck
LeftEye	Head
RightEye	Head
LeftShoulder	Spine2
LeftArm	LeftShoulder
LeftForeArm	LeftArm
LeftHand	LeftForeArm
LeftHandThumb1	LeftHand
LeftHandThumb2	LeftHandThumb1
LeftHandThumb3	LeftHandThumb2
LeftHandThumb4	LeftHandThumb3
LeftHandIndex1	LeftHand
LeftHandIndex2	LeftHandIndex1
LeftHandIndex3	LeftHandIndex2
LeftHandIndex4	LeftHandIndex3
LeftHandMiddle1	LeftHand
LeftHandMiddle2	LeftHandMiddle1
LeftHandMiddle3	LeftHandMiddle2
LeftHandMiddle4	LeftHandMiddle3
LeftHandRing1	LeftHand
LeftHandRing2	LeftHandRing1
LeftHandRing3	LeftHandRing2
LeftHandRing4	LeftHandRing3
LeftHandPinky1	LeftHand
LeftHandPinky2	LeftHandPinky1
LeftHandPinky3	LeftHandPinky2
LeftHandPinky4	LeftHandPinky3
RightShoulder	Spine2
RightArm	RightShoulder
RightForeArm	RightArm
RightHand	RightForeArm
RightHandPinky1	RightHand
RightHandPinky2	RightHandPinky1
RightHandPinky3	RightHandPinky2
RightHandPinky4	RightHandPinky3
RightHandRing1	RightHand
RightHandRing2	RightHandRing1
RightHandRing3	RightHandRing2
RightHandRing4	RightHandRing3
RightHandMiddle1	RightHand
RightHandMiddle2	RightHandMiddle1
RightHandMiddle3	RightHandMiddle2
RightHandMiddle4	RightHandMiddle3
RightHandIndex1	RightHand
RightHandIndex2	RightHandIndex1
RightHandIndex3	RightHandIndex2
RightHandIndex4	RightHandIndex3
RightHandThumb1	RightHand
RightHandThumb2	RightHandThumb1
RightHandThumb3	RightHandThumb2
RightHandThumb4	RightHandThumb3
LeftUpLeg	Hips
LeftLeg	LeftUpLeg
LeftFoot	LeftLeg
LeftToeBase	LeftFoot
RightUpLeg	Hips
RightLeg	RightUpLeg
RightFoot	RightLeg
RightToeBase	RightFoot
[BasePosition]
Hips	0	0	0	0	0	0	1
Spine	0	0	0	0	0	0	1
Spine1	0	0	0	0	0	0	1
Spine2	0	0	0	0	0	0	1
Neck	0	0	0	0	0	0	1
Head	0	0	0	0	0	0	1
LeftEye	0	0	0	0	0	0	1
RightEye	0	0	0	0	0	0	1
LeftShoulder	0	0	0	0	0	0	1
LeftArm	0	0	0	0	0	0	1
LeftForeArm	0	0	0	0	0	0	1
LeftHand	0	0	0	0	0	0	1
LeftHandThumb1	0	0	0	0	0	0	1
LeftHandThumb2	0	0	0	0	0	0	1
LeftHandThumb3	0	0	0	0	0	0	1
LeftHandThumb4	0	0	0	0	0	0	1
LeftHandIndex1	0	0	0	0	0	0	1
LeftHandIndex2	0	0	0	0	0	0	1
LeftHandIndex3	0	0	0	0	0	0	1
LeftHandIndex4	0	0	0	0	0	0	1
LeftHandMiddle1	0	0	0	0	0	0	1
LeftHandMiddle2	0	0	0	0	0	0	1
LeftHandMiddle3	0	0	0	0	0	0	1
LeftHandMiddle4	0	0	0	0	0	0	1
LeftHandRing1	0	0	0	0	0	0	1
LeftHandRing2	0	0	0	0	0	0	1
LeftHandRing3	0	0	0	0	0	0	1
LeftHandRing4	0	0	0	0	0	0	1
LeftHandPinky1	0	0	0	0	0	0	1
LeftHandPinky2	0	0	0	0	0	0	1
LeftHandPinky3	0	0	0	0	0	0	1
LeftHandPinky4	0	0	0	0	0	0	1
RightShoulder	0	0	0	0	0	0	1
RightArm	0	0	0	0	0	0	1
RightForeArm	0	0	0	0	0	0	1
RightHand	0	0	0	0	0	0	1
RightHandPinky1	0	0	0	0	0	0	1
RightHandPinky2	0	0	0	0	0	0	1
RightHandPinky3	0	0	0	0	0	0	1
RightHandPinky4	0	0	0	0	0	0	1
RightHandRing1	0	0	0	0	0	0	1
RightHandRing2	0	0	0	0	0	0	1
RightHandRing3	0	0	0	0	0	0	1
RightHandRing4	0	0	0	0	0	0	1
RightHandMiddle1	0	0	0	0	0	0	1
RightHandMiddle2	0	0	0	0	0	0	1
RightHandMiddle3	0	0	0	0	0	0	1
RightHandMiddle4	0	0	0	0	0	0	1
RightHandIndex1	0	0	0	0	0	0	1
RightHandIndex2	0	0	0	0	0	0	1
RightHandIndex3	0	0	0	0	0	0	1
RightHandIndex4	0	0	0	0	0	0	1
RightHandThumb1	0	0	0	0	0	0	1
RightHandThumb2	0	0	0	0	0	0	1
RightHandThumb3	0	0	0	0	0	0	1
RightHandThumb4	0	0	0	0	0	0	1
LeftUpLeg	0	0	0	0	0	0	1
LeftLeg	0	0	0	0	0	0	1
LeftFoot	0	0	0	0	0	0	1
LeftToeBase	0	0	0	0	0	0	1
RightUpLeg	0	0	0	0	0	0	1
RightLeg	0	0	0	0	0	0	1
RightFoot	0	0	0	0	0	0	1
RightToeBase	0	0	0	0	0	0	1
[Hips]
9	687.7520142	972.1439209	-28.89987946	7.240597725	77.55222321	5.225128174	1.0
10	780.0075684	980.3297119	-35.86826324	15.87213898	78.2153244	14.92197037	1.0
11	864.652832	994.2563477	-42.51957321	23.1864357	79.00775146	22.91081429	1.0
[Spine]
9	0	101.8159943	1.315000057	2.171474218	-2.739699364	-0.5885159969	1.0
10	0	101.8159943	1.315000057	2.550426245	-3.817313671	-1.853693008	1.0
11	0	101.8159943	1.315000057	3.143490791	-4.795638084	-2.383470297	1.0
[Spine1]
9	0	100.8349991	-10.00800037	0.8153710961	-13.96115398	1.493494272	1.0
10	0	100.8349991	-10.00800037	0.9352453351	-14.27766895	1.198136091	1.0
11	0	100.8349991	-10.00800037	1.055955648	-14.57939243	1.070509791	1.0
[Spine2]
9	0	91	-13.73399925	0.5627008677	-13.92050457	1.851523757	1.0
10	0	91	-13.73399925	0.6822274327	-14.23566055	1.555941343	1.0
11	0	91	-13.73399925	0.8024905324	-14.53345203	1.42639184	1.0
[Neck]
9	0	166.7169952	-25.16200066	3.857702255	-6.530402184	0.3896900117	1.0
10	0	166.7169952	-25.16200066	3.460785627	-6.419258118	0.256244123	1.0
11	0	166.7169952	-25.16200066	3.225619316	-6.263328552	-0.2591257393	1.0
[Head]
9	0	96.17900085	16.84999847	-15.00553417	-38.89425659	8.469031334	1.0
10	0	96.17900085	16.84999847	-14.51964188	-38.94301987	8.511680603	1.0
11	0	96.17900085	16.84999847	-14.46666241	-39.06258392	8.422390938	1.0
[LeftEye]
9	30.6760006	64.09500122	92.83599854	0	0	0	1.0
10	30.6760006	64.09500122	92.83599854	0	0	0	1.0
11	30.6760006	64.09500122	92.83599854	0	0	0	1.0
[RightEye]
9	-30.6760006	64.09500122	92.83499908	0	0	0	1.0
10	-30.6760006	64.09500122	92.83499908	0	0	0	1.0
11	-30.6760006	64.09500122	92.83499908	0	0	0	1.0
[LeftShoulder]
9	45.70400238	109.4599991	-26.28000069	5.347152233	-15.92446899	-12.29117393	1.0
10	45.70400238	109.4599991	-26.28000069	5.892407894	-17.0558033	-14.46296787	1.0
11	45.70400238	109.4599991	-26.28000069	6.43332386	-17.72481918	-16.7639637	1.0
[LeftArm]
9	105.923996	-5.24600029	-22.32099915	-33.42884064	28.19693184	-80.40756226	1.0
10	105.923996	-5.24600029	-22.32099915	-29.0886879	25.78224373	-77.64614105	1.0
11	105.923996	-5.24600029	-22.32099915	-21.33407974	20.56535149	-72.66007233	1.0
[LeftForeArm]
9	278.414978	-0.0009999999311	0	4.293844995e-06	-1.058826208	-0.0002130080975	1.0
10	278.414978	-0.0009999999311	0	-5.4279908e-06	-0.1835323572	-0.0001933232998	1.0
11	278.414978	-0.0009999999311	0	-1.197041365e-05	-1.433510306e-06	-0.0002057592646	1.0
[LeftHand]
9	283.2879944	0	0	18.7770977	10.11823177	-1.600700259	1.0
10	283.2879944	0	0	21.82263756	14.49280167	-5.370638847	1.0
11	283.2879944	0	0	25.52697754	16.91224098	-9.258223534	1.0
[LeftHandThumb1]
9	24.6609993	-15.75	26.8239994	8.146475792	2.810676336	1.691736817	1.0
10	24.6609993	-15.75	26.8239994	8.84061718	4.368612766	2.469127178	1.0
11	24.6609993	-15.75	26.8239994	9.384337425	5.549726009	3.077372313	1.0
[LeftHandThumb2]
9	32.29800034	-18.64699936	18.64699936	14.26286888	15.25119114	14.52602959	1.0
10	32.29800034	-18.64699936	18.64699936	14.73656559	16.44893837	14.89457703	1.0
11	32.29800034	-18.64699936	18.64699936	13.98330212	19.65664291	14.64843273	1.0
[LeftHandThumb3]
9	26.52600098	-15.31499958	15.31499958	4.681949139	3.159194946	0.4765346348	1.0
10	26.52600098	-15.31499958	15.31499958	4.968756676	5.451973438	0.6291232109	1.0
11	26.52600098	-15.31499958	15.31499958	5.311795235	7.794848442	0.6409996748	1.0
[LeftHandThumb4]
9	19.54599953	-11.28499985	11.28499985	0	0	0	1.0
10	19.54599953	-11.28499985	11.28499985	0	0	0	1.0
11	19.54599953	-11.28499985	11.28499985	0	0	0	1.0
[LeftHandIndex1]
9	91.09299469	-5.170999527	22.60099792	-0.2269918025	3.322502136	-7.902878761	1.0
10	91.09299469	-5.170999527	22.60099792	-0.7451032996	3.689230442	-14.52300072	1.0
11	91.09299469	-5.170999527	22.60099792	-1.532100916	4.066403866	-22.45430565	1.0
[LeftHandIndex2]
9	36.76399994	0	0	-0.100756228	1.409257174	-6.185257435	1.0
10	36.76399994	0	0	-0.222280398	1.829427719	-10.48357964	1.0
11	36.76399994	0	0	-0.3285701275	2.124252319	-13.56412029	1.0
[LeftHandIndex3]
9	28.83100128	0	0	-0.05903822184	0.4645607769	-6.742521763	1.0
10	28.83100128	0	0	-0.1308905482	0.9170722961	-11.29943943	1.0
11	28.83100128	0	0	-0.2044448704	1.237317204	-14.56776524	1.0
[LeftHandIndex4]
9	23.92700005	0	0	0	0	0	1.0
10	23.92700005	0	0	0	0	0	1.0
11	23.92700005	0	0	0	0	0	1.0
[LeftHandMiddle1]
9	95.33399963	0	0	-2.042635679	9.832468987	-20.05098343	1.0
10	95.33399963	0	0	-3.10797596	9.747445107	-28.29192734	1.0
11	95.33399963	0	0	-4.163424969	9.11814785	-36.14453506	1.0
[LeftHandMiddle2]
9	36.98199844	0	0	-0.1623375714	1.646221995	-8.351901054	1.0
10	36.98199844	0	0	-0.4008630812	2.270823717	-14.95186806	1.0
11	36.98199844	0	0	-0.6287519336	2.723620892	-19.95772362	1.0
[LeftHandMiddle3]
9	29.50900078	0	0	-0.002044867491	0.4629930258	-1.871202946	1.0
10	29.50900078	0	0	-0.0807621479	1.155408978	-8.87590313	1.0
11	29.50900078	0	0	-0.1960009038	1.669548988	-14.17249203	1.0
[LeftHandMiddle4]
9	28.3390007	0	0	0	0	0	1.0
10	28.3390007	0	0	0	0	0	1.0
11	28.3390007	0	0	0	0	0	1.0
[LeftHandRing1]
9	91.04499817	-0.4390000105	-18.65100098	-3.101302862	13.62884521	-26.79947472	1.0
10	91.04499817	-0.4390000105	-18.65100098	-4.392877579	13.8088913	-36.33802795	1.0
11	91.04499817	-0.4390000105	-18.65100098	-5.582256317	13.4977026	-44.97663116	1.0
[LeftHandRing2]
9	31.54000092	0	0	-0.03481011838	1.244342446	-9.109696388	1.0
10	31.54000092	0	0	-0.170984149	1.969723701	-16.55670929	1.0
11	31.54000092	0	0	-0.3352790177	2.501412153	-22.1733036	1.0
[LeftHandRing3]
9	29.37700081	0	0	0.06431081891	0.2970221341	-3.074990988	1.0
10	29.37700081	0	0	0.03796693683	1.156630397	-11.71822166	1.0
11	29.37700081	0	0	-0.06687822193	1.79479301	-18.21752357	1.0
[LeftHandRing4]
9	26.47500038	0	0	0	0	0	1.0
10	26.47500038	0	0	0	0	0	1.0
11	26.47500038	0	0	0	0	0	1.0
[LeftHandPinky1]
9	80.77799988	-4.887000084	-38.06099701	-3.8402915	17.45793343	-28.24242401	1.0
10	80.77799988	-4.887000084	-38.06099701	-6.031404018	17.50024986	-39.43108749	1.0
11	80.77799988	-4.887000084	-38.06099701	-7.884594917	17.178936	-49.3440361	1.0
[LeftHandPinky2]
9	36	0	0	-0.2118632197	1.082885265	-12.79964733	1.0
10	36	0	0	-0.5593917966	1.996688962	-22.58687019	1.0
11	36	0	0	-0.9107406735	2.622163773	-29.77069092	1.0
[LeftHandPinky3]
9	21.14200211	0	0	0.001865055179	0.7262985706	1.319686174	1.0
10	21.14200211	0	0	-0.141938284	1.693430543	-8.44054985	1.0
11	21.14200211	0	0	-0.3500835896	2.377806425	-15.58187485	1.0
[LeftHandPinky4]
9	19.75699997	0	0	0	0	0	1.0
10	19.75699997	0	0	0	0	0	1.0
11	19.75699997	0	0	0	0	0	1.0
[RightShoulder]
9	-45.70000076	109.4620056	-26.28000069	3.804020166	4.954061031	5.011086941	1.0
10	-45.70000076	109.4620056	-26.28000069	3.828291178	3.324562073	6.017979145	1.0
11	-45.70000076	109.4620056	-26.28000069	3.84986949	2.494948149	6.806737423	1.0
[RightArm]
9	-105.9280014	-5.248000145	-22.32099915	24.72367668	30.86196136	55.57474136	1.0
10	-105.9280014	-5.248000145	-22.32099915	28.7738533	28.11750221	57.56235123	1.0
11	-105.9280014	-5.248000145	-22.32099915	32.00590897	24.20861053	60.13505554	1.0
[RightForeArm]
9	-278.414978	0	0	-4.342135071e-06	42.05379868	-2.964345072e-07	1.0
10	-278.414978	0	0	-5.704346222e-07	40.78034592	1.667112519e-05	1.0
11	-278.414978	0	0	-1.301381417e-05	36.46770096	-1.298002462e-05	1.0
[RightHand]
9	-283.2879944	0	0.0009999999311	10.90537548	12.5380249	-10.11661625	1.0
10	-283.2879944	0	0.0009999999311	8.397086143	16.52198219	-17.44314384	1.0
11	-283.2879944	0	0.0009999999311	5.419411182	19.40298271	-25.03243828	1.0
[RightHandPinky1]
9	-80.76699829	-4.885000229	-38.06000137	-3.474128008	-12.0902462	28.3643074	1.0
10	-80.76699829	-4.885000229	-38.06000137	-3.302815437	-12.30122852	26.80415726	1.0
11	-80.76699829	-4.885000229	-38.06000137	-2.909863949	-13.03166962	24.4702034	1.0
[RightHandPinky2]
9	-36	0	0.0009999999311	-0.01433206536	-0.01647067443	1.963349581	1.0
10	-36	0	0.0009999999311	-0.003371319268	0.1276258975	0.5196394324	1.0
11	-36	0	0.0009999999311	-0.000407925254	0.1776729226	0.01880387962	1.0
[RightHandPinky3]
9	-21.14200211	0	0	-0.1635404527	3.21079874	-10.32653618	1.0
10	-21.14200211	0	0	-0.1830958873	3.387225389	-12.0972414	1.0
11	-21.14200211	0	0	-0.1945754439	3.472747803	-12.95803833	1.0
[RightHandPinky4]
9	-19.75699997	0	0	0	0	0	1.0
10	-19.75699997	0	0	0	0	0	1.0
11	-19.75699997	0	0	0	0	0	1.0
[RightHandRing1]
9	-91.03599548	-0.4390000105	-18.65100098	-2.519839764	-10.43543339	23.4540329	1.0
10	-91.03599548	-0.4390000105	-18.65100098	-2.361661673	-10.44611168	22.19031906	1.0
11	-91.03599548	-0.4390000105	-18.65100098	-2.116662264	-10.75914574	20.09062386	1.0
[RightHandRing2]
9	-31.54000092	0	0	0.005237940233	-0.4438719749	1.025380492	1.0
10	-31.54000092	0	0	0.003327322425	-0.3732794523	0.3135397136	1.0
11	-31.54000092	0	0	0.001905197278	-0.3388825953	0.0001133862752	1.0
[RightHandRing3]
9	-29.37700081	0	0	-0.1480537504	2.540449381	-6.987709999	1.0
10	-29.37700081	0	0	-0.1810024679	2.679210663	-8.421256065	1.0
11	-29.37700081	0	0	-0.2052450478	2.772496939	-9.390018463	1.0
[RightHandRing4]
9	-26.47500038	0	0	0	0	0	1.0
10	-26.47500038	0	0	0	0	0	1.0
11	-26.47500038	0	0	0	0	0	1.0
[RightHandMiddle1]
9	-95.32500458	0	0	-2.124714136	-4.873704433	21.17093277	1.0
10	-95.32500458	0	0	-2.003531456	-5.024884701	20.18443108	1.0
11	-95.32500458	0	0	-1.688628912	-5.281322956	17.59858704	1.0
[RightHandMiddle2]
9	-36.98199844	0	0	0.02761366405	-0.8617789745	0.3878107071	1.0
10	-36.98199844	0	0	0.03334328905	-0.8273839355	0.0440637283	1.0
11	-36.98199844	0	0	0.03423508629	-0.8147418499	-0.0001284863683	1.0
[RightHandMiddle3]
9	-29.50900078	0	0	-0.009285333566	0.2340465486	-3.563648701	1.0
10	-29.50900078	0	0	-0.01308059227	0.3109341562	-4.336943626	1.0
11	-29.50900078	0	0	-0.01628967002	0.3631906807	-4.862909317	1.0
[RightHandMiddle4]
9	-28.3390007	0	0.0009999999311	0	0	0	1.0
10	-28.3390007	0	0.0009999999311	0	0	0	1.0
11	-28.3390007	0	0.0009999999311	0	0	0	1.0
[RightHandIndex1]
9	-91.08300018	-5.167999744	22.60099792	-0.6325308084	0.8216812015	8.404652596	1.0
10	-91.08300018	-5.167999744	22.60099792	-0.598475039	0.4869458973	8.052677155	1.0
11	-91.08300018	-5.167999744	22.60099792	-0.3822721243	0.07392614335	5.998495579	1.0
[RightHandIndex2]
9	-36.76399994	0	0	0.01812072471	-0.7858272195	0.0001447463001	1.0
10	-36.76399994	0	0	0.01770827174	-0.7941961288	0.03063587658	1.0
11	-36.76399994	0	0	0.01813128032	-0.7885505557	0.0001257600816	1.0
[RightHandIndex3]
9	-28.83100128	0	0	-0.0746094957	1.423237443	-2.005466461	1.0
10	-28.83100128	0	0	-0.07518533617	1.439103603	-2.163486958	1.0
11	-28.83100128	0	0	-0.07597563416	1.458760738	-2.359032869	1.0
[RightHandIndex4]
9	-23.92700005	0	0	0	0	0	1.0
10	-23.92700005	0	0	0	0	0	1.0
11	-23.92700005	0	0	0	0	0	1.0
[RightHandThumb1]
9	-24.64799881	-15.72700024	26.82600021	10.97498703	7.676330566	6.964457035	1.0
10	-24.64799881	-15.72700024	26.82600021	11.2050724	7.920695782	7.334643841	1.0
11	-24.64799881	-15.72700024	26.82600021	10.97522163	6.809267044	6.685838699	1.0
[RightHandThumb2]
9	-32.29800034	-18.64699936	18.64699936	-0.7071858644	-22.73677635	-11.04151917	1.0
10	-32.29800034	-18.64699936	18.64699936	-0.6697255373	-23.07035446	-11.02105713	1.0
11	-32.29800034	-18.64699936	18.64699936	-0.4914544821	-22.322649	-11.04122639	1.0
[RightHandThumb3]
9	-26.52600098	-15.31399918	15.31399918	2.163221359	-10.0224514	-0.4797760546	1.0
10	-26.52600098	-15.31399918	15.31399918	2.081289053	-9.780367851	-0.5441300273	1.0
11	-26.52600098	-15.31399918	15.31399918	1.978112698	-9.473211288	-0.6275665164	1.0
[RightHandThumb4]
9	-19.54599953	-11.28499985	11.28499985	0	0	0	1.0
10	-19.54599953	-11.28499985	11.28499985	0	0	0	1.0
11	-19.54599953	-11.28499985	11.28499985	0	0	0	1.0
[LeftUpLeg]
9	82.07800293	-67.51699829	-15.99599934	-35.21269989	3.088231325	-2.497652292	1.0
10	82.07800293	-67.51699829	-15.99599934	-31.16505623	1.710833907	-5.141424179	1.0
11	82.07800293	-67.51699829	-15.99599934	-25.70734978	1.005015612	-7.684594154	1.0
[LeftLeg]
9	0	-443.7049866	2.845999956	20.71075439	7.253449917	4.530950069	1.0
10	0	-443.7049866	2.845999956	25.52972603	7.491489887	4.961953163	1.0
11	0	-443.7049866	2.845999956	26.46266365	7.574237347	5.006629944	1.0
[LeftFoot]
9	0	-444.2789917	-29.8219986	0.9070004821	2.718046665	2.031000614	1.0
10	0	-444.2789917	-29.8219986	2.54801178	2.567644835	2.104390144	1.0
11	0	-444.2789917	-29.8219986	-0.466052711	1.737741828	2.680640936	1.0
[LeftToeBase]
9	0	-87.28699493	107.1060028	-4.174452305	2.005893839e-05	1.557924065e-07	1.0
10	0	-87.28699493	107.1060028	-3.544915438	9.729681551e-06	-1.208102617e-06	1.0
11	0	-87.28699493	107.1060028	-2.799428463	-1.132086982e-05	4.290852473e-08	1.0
[RightUpLeg]
9	-82.07800293	-67.51699829	-15.99599934	18.72398186	-9.040991783	-5.124910355	1.0
10	-82.07800293	-67.51699829	-15.99599934	10.89836502	-8.189910889	-6.804446697	1.0
11	-82.07800293	-67.51699829	-15.99599934	1.462751389	-7.422234058	-6.794495106	1.0
[RightLeg]
9	0	-443.7049866	2.861999989	20.63400459	3.172641993	-7.368307114	1.0
10	0	-443.7049866	2.861999989	38.80526352	1.299304485	-10.7203064	1.0
11	0	-443.7049866	2.861999989	52.60258102	1.097097397	-12.31158924	1.0
[RightFoot]
9	0	-444.2770081	-29.83799934	11.23634434	0.8095809817	2.884597778	1.0
10	0	-444.2770081	-29.83799934	21.27918816	0.4717707634	5.392008305	1.0
11	0	-444.2770081	-29.83799934	24.65643692	-1.170075417	5.299732685	1.0
[RightToeBase]
9	0	-87.28699493	107.1060028	-24.05813789	2.34480834	8.966375351	1.0
10	0	-87.28699493	107.1060028	-5.271108627	1.419276123e-05	-6.344791473e-06	1.0
11	0	-87.28699493	107.1060028	-0.7229927182	2.918211749e-06	-3.068309525e-05	1.0
[EndOfFile]
